<?xml version="1.0" encoding="UTF-8" standalone="no"?> <!-- Created with Vectornator for iOS (http://vectornator.io/) --><!DOCTYPE svg PUBLIC "-//W3C//DTD SVG 1.1//EN" "http://www.w3.org/Graphics/SVG/1.1/DTD/svg11.dtd">
<svg height="100%" style="fill-rule:nonzero;clip-rule:evenodd;stroke-linecap:round;stroke-linejoin:round;" xmlns:xlink="http://www.w3.org/1999/xlink" xmlns="http://www.w3.org/2000/svg" xml:space="preserve" width="100%" xmlns:vectornator="http://vectornator.io" version="1.1" viewBox="0 0 150 50">
<metadata>
<vectornator:setting key="DimensionsVisible" value="0"/>
<vectornator:setting key="PencilOnly" value="0"/>
<vectornator:setting key="SnapToPoints" value="0"/>
<vectornator:setting key="OutlineMode" value="0"/>
<vectornator:setting key="CMYKEnabledKey" value="0"/>
<vectornator:setting key="RulersVisible" value="1"/>
<vectornator:setting key="SnapToEdges" value="0"/>
<vectornator:setting key="GuidesVisible" value="0"/>
<vectornator:setting key="DisplayWhiteBackground" value="0"/>
<vectornator:setting key="doHistoryDisabled" value="0"/>
<vectornator:setting key="SnapToGuides" value="1"/>
<vectornator:setting key="TimeLapseWatermarkDisabled" value="0"/>
<vectornator:setting key="Units" value="Points"/>
<vectornator:setting key="DynamicGuides" value="1"/>
<vectornator:setting key="IsolateActiveLayer" value="0"/>
<vectornator:setting key="SnapToGrid" value="0"/>
</metadata>
<defs/>
<g id="Untitled" vectornator:layerName="Untitled">
<path d="M70.73+18.73L70.73+20.63L75.01+20.66L75+31.18L76.99+31.18L77+20.66L81.68+20.67L81.68+18.77L70.73+18.73Z" opacity="1" fill="#171742"/>
<path d="M95.44+29.3L95.44+18.75L93.45+18.75L93.45+31.19L101.26+31.19L101.26+29.3L95.44+29.3Z" opacity="1" fill="#171742"/>
<path d="M125.03+18.76L125.03+26.41L117.03+18.76L117.03+31.18L119.03+31.18L119.03+22.93L127.02+31.27L127.02+18.76L125.03+18.76Z" opacity="1" fill="#171742"/>
<path d="M135.68+18.76L133.26+23.32L130.85+18.76L128.56+18.76L132.26+25.55L132.27+31.18L134.26+31.18L134.25+25.55L137.97+18.76L135.68+18.76Z" opacity="1" fill="#171742"/>
<path d="M58.45+18.8L58.45+18.8C58.0791+18.7137+57.6914+18.8455+57.45+19.14L53.34+26.14L49.22+19.14C48.9829+18.8398+48.5874+18.7132+48.22+18.82C47.8602+18.9535+47.6211+19.2963+47.62+19.68L47.62+30.74L49.42+30.74L49.42+22.94L52.69+28.42C52.7353+28.4838+52.7891+28.541+52.85+28.59L52.85+28.66L52.98+28.71C53.0904+28.7591+53.2092+28.7863+53.33+28.79L53.43+28.79C53.5541+28.7874+53.6765+28.7602+53.79+28.71L53.91+28.65L53.91+28.59C53.9709+28.5372+54.0247+28.4767+54.07+28.41L57.33+22.94L57.33+30.74L59.14+30.74L59.14+19.66C59.1296+19.2508+58.8473+18.8988+58.45+18.8Z" opacity="1" fill="#171742"/>
<path d="M67.9+18.78L67.14+18.78L66.36+18.78L62.3+28.07L60.74+31L60.91+31.07C61.1362+31.1595+61.3768+31.2069+61.62+31.21C62.2431+31.2104+62.825+30.8988+63.17+30.38C64.1493+28.9659+65.6419+27.9899+67.33+27.66C68.2065+27.4701+69.1135+27.4701+69.99+27.66L70.99+29.66C71.4265+30.5335+72.3235+31.0811+73.3+31.07L73.57+31.07L67.9+18.78ZM69.17+25.92C68.4532+25.8774+67.7339+25.9279+67.03+26.07C66.2736+26.2254+65.5384+26.4704+64.84+26.8L67.25+21.9L69.17+25.92Z" opacity="1" fill="#171742"/>
<path d="M110.35+18.75L109.59+18.75L108.81+18.75L104.42+28.08L102.86+31L103.03+31.07C103.254+31.1653+103.496+31.213+103.74+31.21C104.363+31.2104+104.945+30.8988+105.29+30.38C106.271+28.9682+107.763+27.9929+109.45+27.66C110.326+27.4701+111.234+27.4701+112.11+27.66L113.11+29.66C113.547+30.5335+114.444+31.0811+115.42+31.07L115.69+31.07L110.35+18.75ZM111.29+25.93C110.573+25.8874+109.854+25.9379+109.15+26.08C108.394+26.2354+107.658+26.4804+106.96+26.81L109.37+21.91L111.29+25.93Z" opacity="1" fill="#171742"/>
<path d="M143.4+18.77L142.63+18.77L141.86+18.77L137.46+28.08L135.9+31L136.07+31.07C136.296+31.1595+136.537+31.2069+136.78+31.21C137.403+31.2104+137.985+30.8988+138.33+30.38C139.309+28.9659+140.802+27.9899+142.49+27.66C143.367+27.4752+144.273+27.4752+145.15+27.66L146.15+29.66C146.586+30.5335+147.484+31.0811+148.46+31.07L148.73+31.07L143.4+18.77ZM144.33+25.93C143.613+25.8823+142.893+25.9328+142.19+26.08C141.434+26.2354+140.698+26.4804+140+26.81L142.41+21.9L144.33+25.93Z" opacity="1" fill="#171742"/>
<path d="M89.76+18.75L89.76+26.44C89.8267+27.1351+89.6765+27.8338+89.33+28.44C88.8958+28.9921+88.2323+29.3143+87.53+29.3143C86.8277+29.3143+86.1642+28.9921+85.73+28.44C85.3861+27.8326+85.2328+27.1357+85.29+26.44L85.29+18.75L83.29+18.75L83.29+26.89C83.2569+28.0253+83.6906+29.1246+84.49+29.9315C85.2893+30.7384+86.3844+31.1824+87.52+31.16C88.6904+31.1833+89.8163+30.7112+90.62+29.86C91.3882+29.0548+91.7961+27.9719+91.75+26.86L91.75+18.75L89.76+18.75Z" opacity="1" fill="#171742"/>
<path d="M22.91+29.24L22.91+24.46L22.81+24.46L22.35+25.02C20.72+27.02+19.1+29.07+17.44+31.07C17.182+31.3118+16.8646+31.4809+16.52+31.56C15.8+31.8+15.79+31.78+15.33+31.21L10.15+24.79C10.06+24.67+9.96+24.56+9.79+24.36L9.79+33.17C9.3+33.25+8.86+33.35+8.4+33.4C7.4+33.5+6.45+33.56+5.48+33.67C5.09+33.67+4.9+33.58+4.84+33.22C4.70469+32.6686+4.61769+32.1065+4.58+31.54C4.58+25.6+4.58+19.66+4.58+13.72C4.58+13.59+4.58+13.47+4.58+13.3C5.36916+13.2494+6.15562+13.4338+6.84+13.83C7.50461+14.2063+8.10539+14.6856+8.62+15.25C11.12+18.18+13.56+21.16+16.01+24.12L16.33+24.5L16.61+24.2C19.08+21.2+21.56+18.26+24.02+15.28C24.8804+14.1664+26.1525+13.4456+27.55+13.28L28.13+13.28L28.13+13.77C28.13+18.01+28.13+22.25+28.13+26.49C28.1674+26.7693+27.9987+27.035+27.73+27.12C26.23+27.79+24.73+28.48+23.23+29.12C23.16+29.18+23.06+29.19+22.91+29.24Z" opacity="1" fill="#ec2832"/>
<path d="M1.31+32.85C2.20095+33.6703+3.35933+34.1393+4.57+34.17C7.18082+34.3962+9.81086+34.2242+12.37+33.66C18.8877+32.4191+25.1728+30.1722+31+27C32.5517+26.1932+33.9713+25.1546+35.21+23.92C35.8412+23.3403+36.3041+22.601+36.55+21.78C36.7886+21.0226+36.4842+20.1997+35.81+19.78C35.0166+19.2431+34.0875+18.9415+33.13+18.91C32.03+18.85+30.92+18.91+29.82+18.91C32.1199+18.4027+34.4949+18.3348+36.82+18.71C37.6+18.8395+38.3278+19.1861+38.92+19.71C39.6781+20.2876+39.8805+21.3429+39.39+22.16C38.8046+23.1842+38.0026+24.0681+37.04+24.75C34.5329+26.6305+31.802+28.1925+28.91+29.4C28.4653+29.5166+28.175+29.9436+28.23+30.4C28.28+31.0669+28.2599+31.7373+28.17+32.4C27.7801+34.849+25.7269+36.6894+23.25+36.81L23+36.81L23+31.66C18.7544+33.1741+14.3543+34.2138+9.87999+34.76L9.87999+36.76C9.14166+36.7996+8.40618+36.6408+7.74999+36.3C7.08+36+6.58+35.53+6+35.17C5.79596+35.0229+5.56487+34.9175+5.32+34.86C4.48+34.66+3.61+34.55+2.79+34.31C2.07951+34.1084+1.52129+33.5577+1.31+32.85Z" opacity="1" fill="#171742"/>
</g>
</svg>
